<svg xmlns="http://www.w3.org/2000/svg" width="1600" height="900" viewBox="0 0 1600 900"><rect width="1600" height="900" fill="#F4F6F8"/><path d="M0 0H1600V9H0Z" fill="#C91838"/><text x="70" y="66" font-family="Noto Sans CJK SC" font-size="16" font-weight="700" letter-spacing="3" fill="#E64A68">USE CASE</text><text x="70" y="124" font-family="Noto Sans CJK SC, sans-serif" font-size="48" fill="#17212B" font-weight="700" text-anchor="start"><tspan x="70" dy="0">典型任务：从需求到客室方案</tspan></text><text x="72" y="163" font-family="Noto Sans CJK SC, sans-serif" font-size="20" fill="#667085" font-weight="400" text-anchor="start"><tspan x="72" dy="0">以“现代客室空间方案”为例，平台把设计过程拆成可追溯的多轮协作。</tspan></text><text x="1518" y="844" font-family="Noto Sans CJK SC" font-size="15" fill="#667085" text-anchor="end">15 / 20</text><text x="70" y="844" font-family="Noto Sans CJK SC" font-size="13" fill="#667085">轨道客室智能设计平台 · 项目介绍</text><rect x="80" y="235" width="1440" height="440" rx="28" fill="#FFFFFF" stroke="#D9E0E7" stroke-width="1"/><circle cx="195" cy="370" r="34" fill="#FCECEF" stroke="none" stroke-width="1"/><text x="195" y="378" font-family="Noto Sans CJK SC, sans-serif" font-size="22" fill="#C91838" font-weight="700" text-anchor="middle"><tspan x="195" dy="0">1</tspan></text><text x="195" y="442" font-family="Noto Sans CJK SC, sans-serif" font-size="19" fill="#17212B" font-weight="650" text-anchor="middle"><tspan x="195" dy="0">需求描述</tspan></text><line x1="235" y1="370" x2="325" y2="370" stroke="#E64A68" stroke-width="3" stroke-dasharray="7 7"/><polygon points="323,363 337,370 323,377" fill="#E64A68"/><circle cx="430" cy="370" r="34" fill="#FCECEF" stroke="none" stroke-width="1"/><text x="430" y="378" font-family="Noto Sans CJK SC, sans-serif" font-size="22" fill="#C91838" font-weight="700" text-anchor="middle"><tspan x="430" dy="0">2</tspan></text><text x="430" y="442" font-family="Noto Sans CJK SC, sans-serif" font-size="19" fill="#17212B" font-weight="650" text-anchor="middle"><tspan x="430" dy="0">参考资产</tspan></text><line x1="470" y1="370" x2="560" y2="370" stroke="#E64A68" stroke-width="3" stroke-dasharray="7 7"/><polygon points="558,363 572,370 558,377" fill="#E64A68"/><circle cx="665" cy="370" r="34" fill="#FCECEF" stroke="none" stroke-width="1"/><text x="665" y="378" font-family="Noto Sans CJK SC, sans-serif" font-size="22" fill="#C91838" font-weight="700" text-anchor="middle"><tspan x="665" dy="0">3</tspan></text><text x="665" y="442" font-family="Noto Sans CJK SC, sans-serif" font-size="19" fill="#17212B" font-weight="650" text-anchor="middle"><tspan x="665" dy="0">文生图探索</tspan></text><line x1="705" y1="370" x2="795" y2="370" stroke="#E64A68" stroke-width="3" stroke-dasharray="7 7"/><polygon points="793,363 807,370 793,377" fill="#E64A68"/><circle cx="900" cy="370" r="34" fill="#FCECEF" stroke="none" stroke-width="1"/><text x="900" y="378" font-family="Noto Sans CJK SC, sans-serif" font-size="22" fill="#C91838" font-weight="700" text-anchor="middle"><tspan x="900" dy="0">4</tspan></text><text x="900" y="442" font-family="Noto Sans CJK SC, sans-serif" font-size="19" fill="#17212B" font-weight="650" text-anchor="middle"><tspan x="900" dy="0">局部/分区修改</tspan></text><line x1="940" y1="370" x2="1030" y2="370" stroke="#E64A68" stroke-width="3" stroke-dasharray="7 7"/><polygon points="1028,363 1042,370 1028,377" fill="#E64A68"/><circle cx="1135" cy="370" r="34" fill="#FCECEF" stroke="none" stroke-width="1"/><text x="1135" y="378" font-family="Noto Sans CJK SC, sans-serif" font-size="22" fill="#C91838" font-weight="700" text-anchor="middle"><tspan x="1135" dy="0">5</tspan></text><text x="1135" y="442" font-family="Noto Sans CJK SC, sans-serif" font-size="19" fill="#17212B" font-weight="650" text-anchor="middle"><tspan x="1135" dy="0">对比验证</tspan></text><line x1="1175" y1="370" x2="1265" y2="370" stroke="#E64A68" stroke-width="3" stroke-dasharray="7 7"/><polygon points="1263,363 1277,370 1263,377" fill="#E64A68"/><circle cx="1370" cy="370" r="34" fill="#C91838" stroke="none" stroke-width="1"/><text x="1370" y="378" font-family="Noto Sans CJK SC, sans-serif" font-size="22" fill="#FFFFFF" font-weight="700" text-anchor="middle"><tspan x="1370" dy="0">6</tspan></text><text x="1370" y="442" font-family="Noto Sans CJK SC, sans-serif" font-size="19" fill="#17212B" font-weight="650" text-anchor="middle"><tspan x="1370" dy="0">成果入库</tspan></text><text x="800" y="580" font-family="Noto Sans CJK SC, sans-serif" font-size="21" fill="#344054" font-weight="600" text-anchor="middle"><tspan x="800" dy="0">每一步都绑定项目、会话、应用版本、参数快照、输入资产与输出资产</tspan></text><rect x="590" y="710" width="200" height="36" rx="18" fill="#C91838" stroke="none" stroke-width="1"/><text x="690" y="735" font-family="Noto Sans CJK SC, sans-serif" font-size="17" fill="#FFFFFF" font-weight="600" text-anchor="middle"><tspan x="690" dy="0">设计过程可复盘</tspan></text><rect x="810" y="710" width="200" height="36" rx="18" fill="#202831" stroke="none" stroke-width="1"/><text x="910" y="735" font-family="Noto Sans CJK SC, sans-serif" font-size="17" fill="#FFFFFF" font-weight="600" text-anchor="middle"><tspan x="910" dy="0">成果可继续迭代</tspan></text></svg>