<svg xmlns="http://www.w3.org/2000/svg" width="1600" height="900" viewBox="0 0 1600 900"><rect width="1600" height="900" fill="#F4F6F8"/><path d="M0 0H1600V9H0Z" fill="#C91838"/><text x="70" y="66" font-family="Noto Sans CJK SC" font-size="16" font-weight="700" letter-spacing="3" fill="#E64A68">TRACEABILITY</text><text x="70" y="124" font-family="Noto Sans CJK SC, sans-serif" font-size="48" fill="#17212B" font-weight="700" text-anchor="start"><tspan x="70" dy="0">完整血缘：每一次生成都能追溯</tspan></text><text x="72" y="163" font-family="Noto Sans CJK SC, sans-serif" font-size="20" fill="#667085" font-weight="400" text-anchor="start"><tspan x="72" dy="0">稳定业务 ID 用于页面、搜索和协作；UUID 继续作为内部关系主键。</tspan></text><text x="1518" y="844" font-family="Noto Sans CJK SC" font-size="15" fill="#667085" text-anchor="end">18 / 20</text><text x="70" y="844" font-family="Noto Sans CJK SC" font-size="13" fill="#667085">轨道客室智能设计平台 · 项目介绍</text><rect x="85" y="230" width="1430" height="420" rx="28" fill="#FFFFFF" stroke="#D9E0E7" stroke-width="1"/><rect x="120" y="330" width="236" height="110" rx="18" fill="#FAFBFC" stroke="#D9E0E7" stroke-width="2"/><text x="238" y="374" font-family="Noto Sans CJK SC, sans-serif" font-size="17" fill="#667085" font-weight="600" text-anchor="middle"><tspan x="238" dy="0">用户</tspan></text><text x="238" y="414" font-family="Noto Sans CJK SC, sans-serif" font-size="18" fill="#17212B" font-weight="700" text-anchor="middle"><tspan x="238" dy="0">USR-000001</tspan></text><line x1="356" y1="385" x2="396" y2="385" stroke="#E64A68" stroke-width="3" /><polygon points="394,378 408,385 394,392" fill="#E64A68"/><rect x="406" y="330" width="236" height="110" rx="18" fill="#FAFBFC" stroke="#D9E0E7" stroke-width="2"/><text x="524" y="374" font-family="Noto Sans CJK SC, sans-serif" font-size="17" fill="#667085" font-weight="600" text-anchor="middle"><tspan x="524" dy="0">项目</tspan></text><text x="524" y="414" font-family="Noto Sans CJK SC, sans-serif" font-size="18" fill="#17212B" font-weight="700" text-anchor="middle"><tspan x="524" dy="0">CR-2026-0001</tspan></text><line x1="642" y1="385" x2="682" y2="385" stroke="#E64A68" stroke-width="3" /><polygon points="680,378 694,385 680,392" fill="#E64A68"/><rect x="692" y="330" width="236" height="110" rx="18" fill="#FAFBFC" stroke="#D9E0E7" stroke-width="2"/><text x="810" y="374" font-family="Noto Sans CJK SC, sans-serif" font-size="17" fill="#667085" font-weight="600" text-anchor="middle"><tspan x="810" dy="0">设计会话</tspan></text><text x="810" y="414" font-family="Noto Sans CJK SC, sans-serif" font-size="18" fill="#17212B" font-weight="700" text-anchor="middle"><tspan x="810" dy="0">DSC / Conversation</tspan></text><line x1="928" y1="385" x2="968" y2="385" stroke="#E64A68" stroke-width="3" /><polygon points="966,378 980,385 966,392" fill="#E64A68"/><rect x="978" y="330" width="236" height="110" rx="18" fill="#FFF1F4" stroke="#E694A5" stroke-width="2"/><text x="1096" y="374" font-family="Noto Sans CJK SC, sans-serif" font-size="17" fill="#667085" font-weight="600" text-anchor="middle"><tspan x="1096" dy="0">任务</tspan></text><text x="1096" y="414" font-family="Noto Sans CJK SC, sans-serif" font-size="18" fill="#C91838" font-weight="700" text-anchor="middle"><tspan x="1096" dy="0">TSK-00000001</tspan></text><line x1="1214" y1="385" x2="1254" y2="385" stroke="#E64A68" stroke-width="3" /><polygon points="1252,378 1266,385 1252,392" fill="#E64A68"/><rect x="1264" y="330" width="236" height="110" rx="18" fill="#FAFBFC" stroke="#D9E0E7" stroke-width="2"/><text x="1382" y="374" font-family="Noto Sans CJK SC, sans-serif" font-size="17" fill="#667085" font-weight="600" text-anchor="middle"><tspan x="1382" dy="0">资产</tspan></text><text x="1382" y="414" font-family="Noto Sans CJK SC, sans-serif" font-size="18" fill="#17212B" font-weight="700" text-anchor="middle"><tspan x="1382" dy="0">AST-00000001</tspan></text><text x="800" y="555" font-family="Noto Sans CJK SC, sans-serif" font-size="20" fill="#344054" font-weight="600" text-anchor="middle"><tspan x="800" dy="0">应用版本 · 参数快照 · 有序输入 · Worker 执行 · 输出登记 · 审计事件</tspan></text><rect x="480" y="700" width="140" height="36" rx="18" fill="#FCECEF" stroke="none" stroke-width="1"/><text x="550" y="725" font-family="Noto Sans CJK SC, sans-serif" font-size="17" fill="#C91838" font-weight="600" text-anchor="middle"><tspan x="550" dy="0">可定位</tspan></text><rect x="640" y="700" width="140" height="36" rx="18" fill="#FCECEF" stroke="none" stroke-width="1"/><text x="710" y="725" font-family="Noto Sans CJK SC, sans-serif" font-size="17" fill="#C91838" font-weight="600" text-anchor="middle"><tspan x="710" dy="0">可复盘</tspan></text><rect x="800" y="700" width="140" height="36" rx="18" fill="#FCECEF" stroke="none" stroke-width="1"/><text x="870" y="725" font-family="Noto Sans CJK SC, sans-serif" font-size="17" fill="#C91838" font-weight="600" text-anchor="middle"><tspan x="870" dy="0">可审计</tspan></text><rect x="960" y="700" width="170" height="36" rx="18" fill="#C91838" stroke="none" stroke-width="1"/><text x="1045" y="725" font-family="Noto Sans CJK SC, sans-serif" font-size="17" fill="#FFFFFF" font-weight="600" text-anchor="middle"><tspan x="1045" dy="0">可继续设计</tspan></text></svg>